<?xml version="1.0" encoding="UTF-8" standalone="no"?>
<svg
   xmlns:dc="http://purl.org/dc/elements/1.1/"
   xmlns:cc="http://creativecommons.org/ns#"
   xmlns:rdf="http://www.w3.org/1999/02/22-rdf-syntax-ns#"
   xmlns:svg="http://www.w3.org/2000/svg"
   xmlns="http://www.w3.org/2000/svg"
   xmlns:sodipodi="http://sodipodi.sourceforge.net/DTD/sodipodi-0.dtd"
   xmlns:inkscape="http://www.inkscape.org/namespaces/inkscape"
   version="1.1"
   viewBox="0 0 571.27575 610.0824"
   enable-background="new 0 0 1000 1000"
   xml:space="preserve"
   id="svg22552"
   sodipodi:docname="logo.svg"
   inkscape:version="1.0.2 (394de47547, 2021-03-26)"
   width="571.27576"
   height="610.0824"><defs
     id="defs22556" /><sodipodi:namedview
     pagecolor="#ffffff"
     bordercolor="#666666"
     borderopacity="1"
     objecttolerance="10"
     gridtolerance="10"
     guidetolerance="10"
     inkscape:pageopacity="0"
     inkscape:pageshadow="2"
     inkscape:window-width="1806"
     inkscape:window-height="872"
     id="namedview22554"
     showgrid="false"
     inkscape:zoom="0.49044004"
     inkscape:cx="563.96837"
     inkscape:cy="487.92693"
     inkscape:window-x="1075"
     inkscape:window-y="105"
     inkscape:window-maximized="0"
     inkscape:current-layer="g22550"
     inkscape:document-rotation="0"
     fit-margin-top="0"
     fit-margin-left="0"
     fit-margin-right="0"
     fit-margin-bottom="0" /><metadata
     id="metadata22542"> Svg Vector Icons : http://www.onlinewebfonts.com/icon <rdf:RDF><cc:Work
     rdf:about=""><dc:format>image/svg+xml</dc:format><dc:type
       rdf:resource="http://purl.org/dc/dcmitype/StillImage" /><dc:title></dc:title></cc:Work></rdf:RDF></metadata><g
     id="g22550"
     transform="translate(-55.312026,-214.47156)"><path
       d="m 355.77266,250.13935 c 48.4377,23.06199 74.58465,26.52317 125.69348,15.36839 43.82906,-9.21727 87.63932,12.67845 110.7013,55.73627 6.52734,11.90721 8.46484,22.29075 8.46484,46.51901 0,30.36056 -0.37621,31.90304 -17.68211,59.96869 -25.37571,40.36788 -25.37571,41.13912 -9.23608,66.49602 37.67795,58.82124 38.44919,115.70497 3.06615,183.74348 -16.13963,30.75559 -40.7441,53.81758 -65.72478,61.88739 -9.98851,3.08496 -35.75925,7.6936 -57.65497,9.98851 -44.60031,4.23242 -47.29024,5.37988 -66.11981,24.98069 -31.1318,32.67428 -48.04268,33.0505 -84.17814,1.91869 L 276.57937,754.06072 236.21149,749.8283 C 177.78528,744.0534 158.9369,737.52607 137.79361,715.61153 103.20063,679.8711 80.89107,619.50738 84.74727,571.4647 c 2.31373,-25.37571 15.36839,-58.42621 36.13547,-91.49552 6.52733,-9.98851 6.15111,-10.75975 -6.52734,-30.75559 -27.67062,-43.82906 -31.52682,-53.04633 -33.82174,-78.02702 -2.31372,-31.90304 4.23242,-54.96503 21.14329,-74.96086 24.98069,-29.21311 53.44136,-37.28292 97.25162,-28.44187 41.13912,8.84106 59.19745,5.00366 107.63515,-21.91453 17.68211,-9.57468 19.99583,-9.17965 49.20894,4.27004 z"
       id="path839"
       style="fill:#fffa3b;fill-opacity:1;stroke:#120cd8;stroke-width:49.6604;stroke-miterlimit:4;stroke-dasharray:none;stroke-opacity:0.86821294" /></g></svg>
